<?xml version="1.0" standalone="no"?>
<!DOCTYPE svg PUBLIC "-//W3C//DTD SVG 20010904//EN"
 "http://www.w3.org/TR/2001/REC-SVG-20010904/DTD/svg10.dtd">
<svg version="1.0" xmlns="http://www.w3.org/2000/svg"
 width="192.000000pt" height="148.000000pt" viewBox="0 0 192.000000 148.000000"
 preserveAspectRatio="xMidYMid meet">
<metadata>
Created by potrace 1.16, written by Peter Selinger 2001-2019
</metadata>
<g transform="translate(0.000000,148.000000) scale(0.100000,-0.100000)"
fill="#000000" stroke="none">
<path d="M278 1402 c-22 -4 -34 -47 -19 -66 6 -7 56 -30 111 -51 54 -22 102
-46 106 -54 5 -14 131 -376 204 -587 23 -67 26 -84 15 -95 -20 -22 -77 -193
-73 -220 2 -18 10 -25 31 -27 32 -4 31 0 11 -47 -20 -48 -12 -94 22 -135 53
-63 166 -58 211 9 27 40 31 115 7 149 l-15 22 151 0 151 0 -15 -22 c-34 -48
-8 -163 42 -183 50 -20 78 -24 113 -15 74 20 114 104 84 176 -19 46 -20 42 11
46 31 3 50 28 41 52 -6 14 -43 16 -382 16 -206 0 -375 3 -375 7 0 3 8 30 17
60 l17 53 357 0 c273 0 359 3 367 13 5 6 54 151 108 320 75 238 96 312 87 325
-9 15 -53 17 -473 20 -333 1 -467 -1 -476 -9 -20 -17 -17 -57 5 -69 13 -6 167
-10 431 -10 l412 0 -6 -25 c-3 -13 -11 -36 -16 -50 l-10 -25 -345 0 c-220 0
-353 -4 -366 -10 -21 -12 -25 -50 -7 -68 9 -9 100 -12 350 -12 186 0 338 -3
338 -7 0 -3 -8 -30 -17 -60 l-17 -53 -292 0 c-253 0 -295 -2 -308 -16 -20 -20
-20 -38 0 -58 13 -14 54 -16 290 -16 198 0 274 -3 274 -11 0 -7 -5 -29 -12
-50 l-11 -39 -307 0 -308 0 -6 28 c-15 59 -239 688 -250 699 -24 25 -231 101
-258 95z"/>
</g>
</svg>
