<?xml version="1.0" standalone="no"?>
<!DOCTYPE svg PUBLIC "-//W3C//DTD SVG 20010904//EN"
 "http://www.w3.org/TR/2001/REC-SVG-20010904/DTD/svg10.dtd">
<svg version="1.0" xmlns="http://www.w3.org/2000/svg"
 width="148.000000pt" height="148.000000pt" viewBox="0 0 148.000000 148.000000"
 preserveAspectRatio="xMidYMid meet">
<metadata>
Created by potrace 1.16, written by Peter Selinger 2001-2019
</metadata>
<g transform="translate(0.000000,148.000000) scale(0.100000,-0.100000)"
fill="#000000" stroke="none">
<path d="M830 1243 c-15 -59 -25 -202 -16 -236 5 -21 18 -29 72 -47 37 -11 86
-30 110 -42 33 -15 54 -18 82 -13 52 10 69 29 82 94 6 31 23 79 37 108 21 43
24 55 13 68 -12 14 -96 44 -167 60 -32 6 -33 6 -45 -39 -14 -54 -22 -55 -103
-25 -60 22 -65 34 -40 83 18 35 18 36 1 36 -8 0 -19 -20 -26 -47z"/>
<path d="M1220 1103 c-17 -27 -33 -59 -36 -73 -3 -14 -13 -45 -22 -70 -15 -40
-23 -47 -64 -60 -39 -13 -45 -19 -37 -33 22 -39 -21 -50 -58 -15 -18 17 -26
19 -35 10 -9 -9 -9 -15 0 -24 7 -7 12 -22 12 -35 0 -27 -30 -32 -50 -8 -19 22
-35 3 -19 -22 16 -26 5 -53 -21 -53 -20 0 -25 -15 -14 -44 11 -28 56 -7 115
53 47 49 65 60 120 75 77 22 96 37 110 90 10 37 9 41 -15 59 -14 10 -26 24
-26 30 0 6 10 1 23 -10 12 -11 40 -30 63 -41 22 -12 55 -37 72 -56 17 -20 34
-36 38 -36 3 0 20 10 37 22 l32 22 -19 -22 c-36 -41 -119 -48 -182 -14 -16 8
-24 6 -41 -12 -13 -13 -51 -31 -85 -41 -53 -15 -72 -26 -119 -75 -35 -37 -67
-60 -87 -65 -18 -3 -32 -11 -32 -16 0 -31 114 -209 134 -209 6 0 67 21 136 46
l126 46 16 46 c20 54 34 132 24 132 -3 0 -33 -18 -65 -40 -73 -50 -120 -70
-165 -70 -66 0 -84 72 -35 135 11 14 25 25 31 25 7 0 2 -10 -10 -22 -35 -38
-45 -77 -27 -104 36 -55 155 -4 335 144 l65 53 -57 -55 c-45 -43 -58 -62 -58
-85 0 -16 -9 -58 -20 -93 -11 -34 -20 -64 -20 -65 0 -5 146 49 154 57 6 6 8
57 6 122 -3 122 -2 170 5 263 l5 60 -95 63 c-53 34 -100 62 -105 62 -6 0 -23
-21 -40 -47z"/>
<path d="M800 771 c0 -5 7 -21 14 -37 24 -44 -4 -62 -38 -25 -10 11 -24 17
-32 14 -13 -5 -13 -8 1 -23 8 -9 15 -26 15 -38 0 -30 -30 -29 -60 3 -26 28
-50 23 -24 -6 18 -20 13 -49 -8 -49 -8 0 -24 7 -36 16 -25 17 -38 13 -29 -10
8 -21 247 -230 267 -234 9 -2 42 6 73 18 l56 21 -39 51 c-55 74 -89 148 -96
214 -4 33 -11 67 -16 77 -9 17 -48 24 -48 8z"/>
<path d="M470 669 c-19 -10 -78 -34 -130 -54 -52 -20 -117 -45 -145 -56 -27
-11 -59 -22 -70 -24 -11 -3 -33 -18 -48 -36 -86 -94 35 -164 303 -176 142 -7
424 23 453 47 8 7 -120 131 -176 172 l-28 20 26 -37 c47 -71 25 -100 -55 -72
-36 13 -84 17 -211 17 -199 0 -269 14 -269 53 0 6 6 4 12 -5 22 -28 88 -38
264 -38 133 0 178 -3 200 -15 64 -33 96 -7 56 46 -28 37 -62 107 -62 129 0 20
-46 51 -72 49 -7 -1 -29 -9 -48 -20z"/>
<path d="M1428 559 c-9 -5 -59 -22 -110 -38 -51 -16 -167 -56 -258 -90 -91
-33 -195 -67 -233 -76 -191 -44 -451 -57 -594 -30 -100 19 -186 61 -194 95 -5
23 -6 23 -12 5 -4 -11 -6 -40 -5 -63 2 -34 8 -49 30 -67 67 -56 226 -94 434
-102 187 -7 281 5 434 59 63 22 167 55 230 74 148 44 262 84 275 97 7 7 5 8
-5 5 -8 -3 -69 -22 -135 -43 -66 -20 -192 -61 -280 -91 -205 -69 -320 -88
-485 -81 -198 9 -410 56 -466 104 l-29 24 45 -24 c104 -57 287 -91 495 -90
191 0 234 8 500 98 105 35 229 75 277 90 47 14 91 32 98 39 6 8 10 37 8 65 -3
43 -5 49 -20 40z"/>
</g>
</svg>
